<?xml version="1.0" encoding="UTF-8" standalone="no"?>
<!-- Created with Inkscape (http://www.inkscape.org/) -->

<svg
   width="820"
   height="462"
   viewBox="0 0 820 462"
   version="1.1"
   id="svg1"
   xml:space="preserve"
   inkscape:export-filename="logo.png"
   inkscape:export-xdpi="96"
   inkscape:export-ydpi="96"
   inkscape:version="1.4 (e7c3feb1, 2024-10-09)"
   sodipodi:docname="logo.svg"
   xmlns:inkscape="http://www.inkscape.org/namespaces/inkscape"
   xmlns:sodipodi="http://sodipodi.sourceforge.net/DTD/sodipodi-0.dtd"
   xmlns="http://www.w3.org/2000/svg"
   xmlns:svg="http://www.w3.org/2000/svg"><sodipodi:namedview
     id="namedview1"
     pagecolor="#505050"
     bordercolor="#eeeeee"
     borderopacity="1"
     inkscape:showpageshadow="0"
     inkscape:pageopacity="0"
     inkscape:pagecheckerboard="0"
     inkscape:deskcolor="#505050"
     inkscape:document-units="px"
     showgrid="true"
     inkscape:zoom="1.2878049"
     inkscape:cx="409.61174"
     inkscape:cy="230.625"
     inkscape:window-width="1920"
     inkscape:window-height="1051"
     inkscape:window-x="0"
     inkscape:window-y="0"
     inkscape:window-maximized="0"
     inkscape:current-layer="layer1"><inkscape:grid
       id="grid1"
       units="px"
       originx="0"
       originy="0"
       spacingx="1"
       spacingy="1"
       empcolor="#0099e5"
       empopacity="0.30196078"
       color="#0099e5"
       opacity="0.14901961"
       empspacing="5"
       enabled="true"
       visible="true" /></sodipodi:namedview><defs
     id="defs1"><linearGradient
       id="paint0_linear"
       x1="27.4809"
       y1="53.2304"
       x2="40.6524"
       y2="25.2408"
       gradientUnits="userSpaceOnUse"><stop
         offset="0.00132565"
         stop-color="#FFCB4B"
         id="stop29" /><stop
         offset="1"
         stop-color="#FFD748"
         id="stop30" /></linearGradient><linearGradient
       id="paint1_linear"
       x1="39.8166"
       y1="39.4561"
       x2="79.8605"
       y2="71.8264"
       gradientUnits="userSpaceOnUse"><stop
         stop-color="#FFBC47"
         stop-opacity="0"
         id="stop31" /><stop
         offset="1"
         stop-color="#C86F34"
         id="stop32" /></linearGradient><linearGradient
       id="paint2_linear"
       x1="25.2677"
       y1="52.1884"
       x2="38.4393"
       y2="24.1988"
       gradientUnits="userSpaceOnUse"><stop
         stop-color="#FFBB47"
         stop-opacity="0.9686"
         id="stop33" /><stop
         offset="0.0026513"
         stop-color="#FFBA47"
         id="stop34" /><stop
         offset="1"
         stop-color="#FFD748"
         stop-opacity="0"
         id="stop35" /></linearGradient><linearGradient
       id="paint3_linear"
       x1="32.5464"
       y1="28.7399"
       x2="17.258"
       y2="76.2516"
       gradientUnits="userSpaceOnUse"><stop
         stop-color="#FFBC47"
         stop-opacity="0"
         id="stop36" /><stop
         offset="1"
         stop-color="#C86F34"
         id="stop37" /></linearGradient><linearGradient
       id="paint4_linear"
       x1="14.3709"
       y1="30.4293"
       x2="35.1867"
       y2="-4.14607"
       gradientUnits="userSpaceOnUse"><stop
         stop-color="#FFBC47"
         stop-opacity="0"
         id="stop38" /><stop
         offset="1"
         stop-color="#C86F34"
         id="stop39" /></linearGradient><linearGradient
       id="paint5_linear"
       x1="42.6872"
       y1="42.1035"
       x2="50.6254"
       y2="11.1444"
       gradientUnits="userSpaceOnUse"><stop
         stop-color="#FFBC47"
         stop-opacity="0"
         id="stop40" /><stop
         offset="1"
         stop-color="#C86F34"
         id="stop41" /></linearGradient><linearGradient
       id="paint6_linear"
       x1="65.7254"
       y1="31.9528"
       x2="20.8009"
       y2="27.9543"
       gradientUnits="userSpaceOnUse"><stop
         offset="0.00132565"
         stop-color="#FFCB4B"
         id="stop42" /><stop
         offset="1"
         stop-color="#FFD748"
         id="stop43" /></linearGradient><linearGradient
       id="paint7_linear"
       x1="51.2631"
       y1="9.59384"
       x2="48.0878"
       y2="72.7468"
       gradientUnits="userSpaceOnUse"><stop
         stop-color="#FFBC47"
         stop-opacity="0"
         id="stop44" /><stop
         offset="1"
         stop-color="#C86F34"
         id="stop45" /></linearGradient><linearGradient
       id="paint8_linear"
       x1="35.1522"
       y1="58.9722"
       x2="38.6803"
       y2="52.1512"
       gradientUnits="userSpaceOnUse"><stop
         offset="0.00132565"
         stop-color="#FFCB4B"
         id="stop46" /><stop
         offset="1"
         stop-color="#FFD748"
         id="stop47" /></linearGradient><linearGradient
       id="paint9_linear"
       x1="40.6485"
       y1="61.8151"
       x2="44.1766"
       y2="54.9941"
       gradientUnits="userSpaceOnUse"><stop
         offset="0.00132565"
         stop-color="#FFCB4B"
         id="stop48" /><stop
         offset="1"
         stop-color="#FFD748"
         id="stop49" /></linearGradient><linearGradient
       id="paint10_linear"
       x1="42.4366"
       y1="57.8909"
       x2="20.4741"
       y2="57.7145"
       gradientUnits="userSpaceOnUse"><stop
         stop-color="#FFBC47"
         stop-opacity="0"
         id="stop50" /><stop
         offset="1"
         stop-color="#C86F34"
         id="stop51" /></linearGradient><linearGradient
       id="paint11_linear"
       x1="47.6666"
       y1="52.0829"
       x2="23.4991"
       y2="85.4235"
       gradientUnits="userSpaceOnUse"><stop
         stop-color="#FFBC47"
         stop-opacity="0"
         id="stop52" /><stop
         offset="1"
         stop-color="#C86F34"
         id="stop53" /></linearGradient><linearGradient
       id="paint12_linear"
       x1="20.7683"
       y1="51.7153"
       x2="27.8481"
       y2="46.3203"
       gradientUnits="userSpaceOnUse"><stop
         offset="0.00132565"
         stop-color="#FFCB4B"
         id="stop54" /><stop
         offset="1"
         stop-color="#FFD748"
         id="stop55" /></linearGradient><linearGradient
       id="paint13_linear"
       x1="29.0073"
       y1="56.1611"
       x2="33.06"
       y2="48.3259"
       gradientUnits="userSpaceOnUse"><stop
         offset="0.00132565"
         stop-color="#FFCB4B"
         id="stop56" /><stop
         offset="1"
         stop-color="#FFD748"
         id="stop57" /></linearGradient><linearGradient
       id="paint14_linear"
       x1="34.3471"
       y1="50.6255"
       x2="2.77063"
       y2="47.2738"
       gradientUnits="userSpaceOnUse"><stop
         stop-color="#FFBC47"
         stop-opacity="0"
         id="stop58" /><stop
         offset="1"
         stop-color="#C86F34"
         id="stop59" /></linearGradient><linearGradient
       id="paint15_linear"
       x1="37.7985"
       y1="42.9665"
       x2="10.4631"
       y2="80.6773"
       gradientUnits="userSpaceOnUse"><stop
         stop-color="#FFBC47"
         stop-opacity="0"
         id="stop60" /><stop
         offset="1"
         stop-color="#C86F34"
         id="stop61" /></linearGradient><linearGradient
       id="paint16_linear"
       x1="27.6801"
       y1="12.3277"
       x2="38.2853"
       y2="45.2377"
       gradientUnits="userSpaceOnUse"><stop
         stop-color="#FFBC47"
         stop-opacity="0"
         id="stop62" /><stop
         offset="1"
         stop-color="#C86F34"
         id="stop63" /></linearGradient><radialGradient
       id="paint17_radial"
       cx="0"
       cy="0"
       r="1"
       gradientUnits="userSpaceOnUse"
       gradientTransform="matrix(3.7057007,-5.0717366,2.4708214,1.8053234,31.3864,23.7058)"><stop
         stop-color="#FBE07A"
         id="stop64" /><stop
         offset="0.2654"
         stop-color="#FCDF73"
         stop-opacity="0.7346"
         id="stop65" /><stop
         offset="0.6548"
         stop-color="#FDDB5F"
         stop-opacity="0.3452"
         id="stop66" /><stop
         offset="1"
         stop-color="#FFD748"
         stop-opacity="0"
         id="stop67" /></radialGradient><radialGradient
       id="paint18_radial"
       cx="0"
       cy="0"
       r="1"
       gradientUnits="userSpaceOnUse"
       gradientTransform="matrix(2.6974862,-6.1208511,4.3565913,1.9199691,13.5172,25.993)"><stop
         stop-color="#FBE07A"
         id="stop68" /><stop
         offset="0.2654"
         stop-color="#FCDF73"
         stop-opacity="0.7346"
         id="stop69" /><stop
         offset="0.6548"
         stop-color="#FDDB5F"
         stop-opacity="0.3452"
         id="stop70" /><stop
         offset="1"
         stop-color="#FFD748"
         stop-opacity="0"
         id="stop71" /></radialGradient><radialGradient
       id="paint19_radial"
       cx="0"
       cy="0"
       r="1"
       gradientUnits="userSpaceOnUse"
       gradientTransform="matrix(6.3921881,2.0219396,-0.89218553,2.8205679,48.793,25.2313)"><stop
         stop-color="#FBE07A"
         id="stop72" /><stop
         offset="0.2654"
         stop-color="#FCDF73"
         stop-opacity="0.7346"
         id="stop73" /><stop
         offset="0.6548"
         stop-color="#FDDB5F"
         stop-opacity="0.3452"
         id="stop74" /><stop
         offset="1"
         stop-color="#FFD748"
         stop-opacity="0"
         id="stop75" /></radialGradient><radialGradient
       id="paint20_radial"
       cx="0"
       cy="0"
       r="1"
       gradientUnits="userSpaceOnUse"
       gradientTransform="matrix(3.2770965,4.9152484,-3.7412213,2.4943487,64.2613,28.2589)"><stop
         stop-color="#FBE07A"
         id="stop76" /><stop
         offset="0.2654"
         stop-color="#FCDF73"
         stop-opacity="0.7346"
         id="stop77" /><stop
         offset="0.6548"
         stop-color="#FDDB5F"
         stop-opacity="0.3452"
         id="stop78" /><stop
         offset="1"
         stop-color="#FFD748"
         stop-opacity="0"
         id="stop79" /></radialGradient></defs><g
     inkscape:label="Layer 1"
     inkscape:groupmode="layer"
     id="layer1"><g
       id="g2"
       transform="matrix(0.83666793,0,0,0.83666793,31.731065,95.493204)"
       inkscape:label="svelte"><path
         d="M 239.68157,40.706757 C 211.11327,-0.18188937 154.69089,-12.301439 113.89482,13.691039 L 42.246906,59.355535 C 22.676004,71.668003 9.1958152,91.653854 5.1119689,114.41213 1.6942052,133.37117 4.6982178,152.92858 13.648395,169.9879 7.5154968,179.29114 3.3325943,189.7413 1.3524912,200.70679 c -4.1233289,23.19531 1.2703786,47.07375 14.9634688,66.24465 28.574338,40.8925 84.99699,53.00683 125.78675,27.01572 l 71.64791,-45.6645 c 19.57228,-12.31103 33.05293,-32.29757 37.13494,-55.05659 3.41731,-18.95882 0.41565,-38.51584 -8.53011,-55.57715 6.1313,-9.30303 10.31244,-19.75276 12.29068,-30.71751 4.12606,-23.195371 -1.26789,-47.074863 -14.96347,-66.244653"
         fill="#ff3e00"
         id="path1" /><path
         d="m 106.88866,270.84127 c -23.101474,6.0068 -47.497155,-3.03592 -61.102249,-22.6487 -8.238653,-11.53155 -11.484062,-25.896 -9.003315,-39.84942 0.415837,-2.26774 0.988097,-4.50399 1.712679,-6.69272 l 1.349701,-4.1156 3.671834,2.69693 c 8.47982,6.23073 17.96117,10.96797 28.03541,14.00754 l 2.66368,0.80812 -0.245375,2.65846 c -0.325475,3.78197 0.698577,7.55704 2.890645,10.65609 4.094361,5.90778 11.439466,8.634 18.396813,6.82819 1.557586,-0.41631 3.042203,-1.06878 4.402189,-1.9347 l 71.670958,-45.67274 c 3.54584,-2.23276 5.98951,-5.85349 6.73367,-9.97712 0.74287,-4.20555 -0.2348,-8.53324 -2.71342,-12.01102 -4.0968,-5.909 -11.44375,-8.63638 -18.40395,-6.83203 -1.55554,0.41634 -3.03818,1.06833 -4.39642,1.93332 l -27.34902,17.43427 c -4.49721,2.85942 -9.40505,5.01464 -14.55352,6.39102 -23.101278,6.00645 -47.496575,-3.03636 -61.101423,-22.64897 -8.238985,-11.5313 -11.484429,-25.8958 -9.003315,-39.84914 2.456042,-13.68933 10.565725,-25.710517 22.339301,-33.114096 L 134.54817,43.232365 c 4.49912,-2.864109 9.41047,-5.022045 14.56314,-6.398713 23.10113,-6.006293 47.49622,3.036369 61.10115,22.648699 8.23865,11.531547 11.48406,25.895994 9.00331,39.849412 -0.41763,2.267347 -0.98986,4.503477 -1.71268,6.692727 l -1.3497,4.11559 -3.66991,-2.6928 C 204.00426,101.21298 194.522,96.473573 184.44615,93.433693 l -2.66368,-0.808392 0.24538,-2.658459 c 0.32267,-3.781636 -0.70113,-7.555678 -2.89065,-10.655819 -4.09436,-5.907777 -11.43947,-8.633997 -18.39681,-6.828188 -1.55759,0.416308 -3.04221,1.068775 -4.40219,1.934699 L 84.667236,120.0922 c -3.545347,2.231 -5.987642,5.8515 -6.728443,9.97437 -0.74747,4.20535 0.228557,8.53459 2.708193,12.01239 4.096861,5.90894 11.443754,8.6363 18.403958,6.83204 1.557196,-0.41716 3.041596,-1.06958 4.401916,-1.9347 l 27.34544,-17.42768 c 4.49527,-2.86318 9.40289,-5.02032 14.55187,-6.39624 23.10128,-6.00645 47.49658,3.03636 61.10143,22.64898 8.23898,11.53129 11.48443,25.89579 9.00331,39.84913 -2.45765,13.69005 -10.56675,25.71226 -22.3393,33.11932 l -71.66492,45.67274 c -4.49911,2.86411 -9.41046,5.02205 -14.56313,6.39872"
         fill="#ffffff"
         id="path2" /></g><g
       id="g4"
       transform="matrix(0.81193773,0,0,0.81193773,591.03031,130.56062)"
       inkscape:label="pb"><path
         d="m 9.4594315,170.33592 c -4.6762843,0 -8.46718344,-3.79048 -8.46718344,-8.46719 V 9.4594315 c 0,-4.6762843 3.79089914,-8.46718344 8.46718344,-8.46718344 H 161.86873 c 4.67671,0 8.46719,3.79089914 8.46719,8.46718344 V 85.664083 h 76.20465 c 4.67671,0 8.46718,3.791181 8.46718,8.467183 V 246.54057 c 0,4.67671 -3.79047,8.46718 -8.46718,8.46718 H 94.131266 c -4.676002,0 -8.467183,-3.79047 -8.467183,-8.46718 v -76.20465 z"
         fill="#ffffff"
         id="path1-7" /><path
         d="M 161.86873,0 H 9.4594315 C 4.2351437,0 0,4.2351437 0,9.4594315 V 161.86873 l 0.00376012,0.26934 c 0.14256866,5.10001 4.32132138,9.1901 9.45567138,9.1901 l 75.2120725,-6.7e-4 3.31e-4,75.21307 c 0,5.22448 4.235195,9.45943 9.459431,9.45943 H 246.54057 C 251.76528,256 256,251.76528 256,246.54057 V 94.131266 l -0.004,-0.26932 c -0.14257,-5.099699 -4.32127,-9.190111 -9.45567,-9.190111 l -75.21307,-3.31e-4 6.7e-4,-75.2120725 C 171.32817,4.2350052 167.09331,0 161.86873,0 Z m 0,1.9844961 c 4.12855,0 7.47494,3.3465007 7.47494,7.4749354 V 85.664083 c 0,0.548003 0.44424,0.992248 0.99225,0.992248 h 76.20465 c 4.12845,0 7.47493,3.34668 7.47493,7.474935 V 246.54057 c 0,4.1287 -3.34623,7.47493 -7.47493,7.47493 H 94.131266 c -4.128255,0 -7.474935,-3.34648 -7.474935,-7.47493 v -76.20465 c 0,-0.54801 -0.444245,-0.99225 -0.992248,-0.99225 H 9.4594315 c -4.1284347,0 -7.4749354,-3.34639 -7.4749354,-7.47494 V 9.4594315 c 0,-4.1282808 3.3466546,-7.4749354 7.4749354,-7.4749354 z"
         fill="#16161a"
         id="path2-9" /><path
         d="m 57.440138,128 c -3.89688,0 -7.055986,-3.15896 -7.055986,-7.05599 V 43.328165 c 0,-3.89688 3.159106,-7.055986 7.055986,-7.055986 H 83.92196 c 5.129702,0 9.920716,0.515863 14.373044,1.547519 4.548996,0.937952 8.469296,2.579316 11.760216,4.924091 3.38758,2.251 6.04909,5.299186 7.98526,9.144628 1.93545,3.751668 2.90353,8.394578 2.90353,13.927882 0,5.346321 -1.01606,9.98916 -3.04889,13.927811 -1.93545,3.939357 -4.59768,7.175233 -7.98526,9.707626 -3.38758,2.532393 -7.30788,4.40858 -11.76021,5.627855 -4.452327,1.219274 -9.194655,1.828911 -14.22769,1.828911 h -5.139581 c -3.897021,0 -7.055986,3.158968 -7.055986,7.055988 v 16.97952 c 0,3.89703 -3.158965,7.05599 -7.055986,7.05599 z M 71.726393,73.391606 c 0,3.897021 3.158965,7.055986 7.055986,7.055986 h 3.832812 c 11.614859,0 17.421939,-4.877098 17.421939,-14.631293 0,-4.783253 -1.500106,-8.159542 -4.500311,-10.129362 -2.903539,-1.969608 -7.211218,-2.954412 -12.921628,-2.954412 h -3.832812 c -3.897021,0 -7.055986,3.159106 -7.055986,7.055845 z"
         fill="#16161a"
         id="path3" /><path
         d="m 142.11197,219.72782 c -3.89702,0 -7.05598,-3.15896 -7.05598,-7.05599 v -77.61584 c 0,-3.89703 3.15896,-7.05599 7.05598,-7.05599 h 24.60917 c 4.9159,0 9.44655,0.37538 13.59124,1.12543 4.24135,0.65691 7.90482,1.87619 10.98899,3.65782 3.08488,1.78234 5.4945,4.12705 7.22956,7.03412 1.83174,2.90777 2.7469,6.56559 2.7469,10.97417 0,2.06317 -0.33728,4.12634 -1.01183,6.19022 -0.57859,2.06317 -1.54244,3.98592 -2.89154,5.76756 -1.34981,1.78234 -3.0369,3.377 -5.06056,4.78396 -1.96015,1.3618 -4.28086,2.37222 -6.96355,3.03055 -0.15594,0.0388 -0.26601,0.17781 -0.26601,0.33798 v 0 c 0,0.16722 0.12066,0.31046 0.28506,0.34151 6.60652,1.23338 11.6198,3.56045 15.04125,6.9819 3.47013,3.47013 5.2052,8.30066 5.2052,14.49087 0,4.68941 -0.91587,8.72261 -2.7469,12.0989 -1.83173,3.37629 -4.386,6.19022 -7.6635,8.44108 -3.27751,2.15701 -7.1329,3.79894 -11.56759,4.92437 -4.33731,1.03159 -9.06059,1.54738 -14.16912,1.54738 z m 14.19876,-61.92404 c 0,3.89702 3.15897,7.05599 7.05599,7.05599 h 2.34259 c 5.2052,0 8.96463,-0.98431 11.27758,-2.95435 2.31366,-1.96932 3.47013,-4.73668 3.47013,-8.30066 0,-3.37629 -1.20445,-5.76827 -3.61478,-7.17452 -2.31295,-1.50081 -5.97642,-2.25157 -10.98828,-2.25157 h -2.48724 c -3.89702,0 -7.05599,3.15967 -7.05599,7.05599 z m 0,38.68938 c 0,3.89632 3.15897,7.05599 7.05599,7.05599 h 4.36624 c 11.37496,0 17.06208,-4.12705 17.06208,-12.38043 0,-4.03321 -1.39779,-6.94098 -4.19337,-8.72261 -2.69891,-1.78235 -6.98825,-2.67352 -12.86871,-2.67352 h -4.36624 c -3.89702,0 -7.05599,3.15897 -7.05599,7.05599 z"
         fill="#16161a"
         id="path4" /></g><g
       style="fill:none"
       id="g1"
       transform="matrix(4.2799888,0,0,4.2799888,249.09226,67.628633)"><path
         d="m 50.0022,56.0284 c -0.0423,1.1899 -2.4258,2.7789 -5.911,2.7789 -3.4851,0 -19.4139,-6.2333 -23.375,-12.3937 C 15.4693,38.2534 10.042,35.962 7.04426,34.1541 4.04658,32.3463 8.05757,21.8947 12.0724,18.851 c 4.0148,-3.0438 5.6461,2.468 10.4094,1.2359 4.7633,-1.2321 13.0962,-0.2188 16.4047,0.8367 3.3086,1.0594 25.9774,14.9501 25.8009,20.0204 -0.1766,5.0704 -1.0133,7.3657 -4.675,7.454 0,0 0.4414,3.9687 -4.8938,4.057 0,0.0039 -0.0653,4.414 -5.1164,3.5734 z"
         fill="url(#paint0_linear)"
         id="path1-2"
         style="fill:url(#paint0_linear)" /><path
         d="m 58.2659,43.3156 c -1.7042,0.2955 -10.6704,-5.4619 -13.1998,-5.3199 -3.1742,0.1766 2.3413,1.6966 6.9665,4.3219 6.1143,3.4698 9.1734,6.7899 3.4391,8.2907 -1.5853,0.4145 -9.7953,-6.6671 -14.643,-6.2641 -1.0594,0.0883 3.512,2.3376 8.5708,5.5579 5.0588,3.2203 2.4987,4.3641 -0.1036,4.1031 -2.6024,-0.261 -11.5532,-5.2469 -13.7142,-4.8516 -2.1609,0.3953 4.3641,1.9844 9.5266,5.2469 2.6484,1.6735 -1.7924,2.5141 -6.74,2.9325 2.5717,0.925 4.6942,1.4777 5.7229,1.4777 3.4851,0 5.8649,-1.5891 5.9109,-2.7789 5.0512,0.8367 5.1164,-3.5735 5.1164,-3.5735 5.3352,-0.0882 4.8938,-4.057 4.8938,-4.057 3.6617,-0.0883 4.4985,-2.3797 4.675,-7.4539 0.0039,-0.1459 -0.0115,-0.3032 -0.046,-0.4645 l -3.7922,-2.2837 c 0.8252,2.9401 -0.879,4.8208 -2.5832,5.1164 z"
         fill="url(#paint1_linear)"
         id="path2-3"
         style="fill:url(#paint1_linear)" /><path
         d="M 54.9996,53.2489 C 54.397,52.6578 53.7483,52.0552 52.9998,51.4411 36.9482,38.249 34.7412,48.1402 27.2451,43.1121 19.7489,38.0839 24.5122,32.6144 18.0716,32.2613 12.4255,31.9504 9.15146,28.7915 7.89634,24.627 c -1.86923,3.9457 -2.71365,8.4058 -0.85209,9.5304 2.99765,1.8078 8.42495,4.1031 13.67195,12.2594 3.9611,6.1566 19.8899,12.3938 23.375,12.3938 3.4852,0 5.8649,-1.5891 5.911,-2.7789 3.677,0.6064 4.7095,-1.5584 4.9974,-2.7828 z"
         fill="url(#paint2_linear)"
         id="path3-9"
         style="fill:url(#paint2_linear)" /><path
         d="m 45.2695,38.4341 c 2.9286,0.9173 5.696,2.2953 8.3636,3.7999 1.3242,0.7715 2.6292,1.5813 3.9189,2.3989 1.4509,0.7139 2.1609,2.3068 2.4642,3.7653 -0.4376,-1.4432 -1.2014,-2.9055 -2.6062,-3.535 -1.3242,-0.7715 -2.6216,-1.5814 -3.9534,-2.326 -2.6408,-1.5353 -5.3621,-2.9171 -8.1871,-4.1031 z"
         fill="#804b24"
         id="path4-9" /><path
         d="m 41.7998,44.6978 c 2.4258,0.8828 4.6865,2.1571 6.8974,3.4698 1.0939,0.6793 2.184,1.3664 3.251,2.088 l 3.1704,2.2031 c -2.2531,-1.2512 -4.391,-2.6829 -6.6018,-3.9918 -1.0901,-0.6793 -2.2032,-1.3203 -3.3163,-1.9575 -1.1169,-0.6295 -2.2415,-1.2513 -3.4007,-1.8116 z"
         fill="#804b24"
         id="path5" /><path
         d="m 36.1538,49.5034 c 2.4527,0.7408 4.794,1.7925 7.1046,2.8787 2.2915,1.1285 4.5676,2.303 6.7439,3.6464 -4.6175,-2.1917 -9.1504,-4.5177 -13.8485,-6.5251 z"
         fill="#804b24"
         id="path6" /><path
         d="M 49.3995,57.1034 C 24.0477,54.0751 22.2169,42.9594 19.2806,39.0828 c -2.9401,-3.8805 -0.0576,-6.8782 -2.468,-5.8227 -2.111,0.925 -7.19291,1.6274 -10.67422,-3.1781 -0.29171,1.9153 -0.0806,3.4737 0.91351,4.0763 2.99771,1.8078 8.42501,4.1031 13.67191,12.2594 3.9611,6.1566 19.8899,12.3938 23.3751,12.3938 2.4795,-0.0039 4.3871,-0.8137 5.3006,-1.7081 z"
         fill="url(#paint3_linear)"
         id="path7"
         style="fill:url(#paint3_linear)" /><path
         d="m 29.713,19.5652 c -2.6139,-0.1113 -5.2354,0.0038 -7.2275,0.522 -4.4524,1.1553 -6.1681,-3.585 -9.6532,-1.7234 3.2203,0.0269 3.9035,3.8191 7.8608,3.7193 2.656,-0.0653 5.2737,-0.618 7.6112,-0.7408 0.4031,-0.6026 0.8675,-1.2129 1.4087,-1.7771 z"
         fill="url(#paint4_linear)"
         id="path8"
         style="fill:url(#paint4_linear)" /><path
         d="M 63.4515,46.8168 C 64.2844,45.6077 64.5953,43.7001 64.6913,40.948 64.8678,35.8777 42.199,21.9832 38.8904,20.9276 36.86,20.279 32.9334,19.6456 29.1028,19.542 c -0.3531,-0.0115 -5.0895,6.3677 -5.0012,8.4864 0.069,1.7042 1.2819,4.0149 5.6115,4.0149 4.3296,0 5.0588,-5.6154 7.3234,-6.2488 3.5888,-0.9979 7.1776,5.6615 12.1136,7.9568 4.9399,2.2914 10.9352,4.7441 11.5225,5.7459 0.5681,0.9557 3.2932,3.7653 2.7789,7.3196 z"
         fill="url(#paint5_linear)"
         id="path9"
         style="fill:url(#paint5_linear)" /><path
         d="m 26.9842,30.3198 c -2.1188,-1.236 -1.7656,-3.6157 -0.7063,-5.3813 1.0594,-1.7656 3.3086,-7.9375 9.1274,-7.9375 5.2047,0 9.5842,3.0514 12.8352,4.3219 2.6753,1.044 5.7344,2.7328 7.9375,2.7328 2.2032,0 6.2257,-2.1763 7.5845,-3.2625 1.0286,-0.8214 3.7039,-0.0883 7.6727,7.143 3.9687,7.2313 2.6445,8.7321 0.6179,9.2617 -2.0304,0.5297 -4.9398,1.3243 -5.6461,3.5274 -0.7062,2.2032 -1.992,3.4161 -1.992,3.4161 0,0 -1.8693,-4.675 -4.7979,-6.5903 -4.8515,-3.1743 -9.0852,-4.9399 -11.4649,-6.7016 -2.3797,-1.7656 -8.3789,-6.5289 -10.8508,-6.5289 -2.4718,0 -5.7305,8.3789 -10.3172,5.9992 z"
         fill="url(#paint6_linear)"
         id="path10"
         style="fill:url(#paint6_linear)" /><path
         d="m 64.4149,44.1451 c 0,0 1.2897,-1.2129 1.9921,-3.416 0.7062,-2.2032 3.6156,-2.9977 5.6461,-3.5274 1.6428,-0.4299 2.8173,-1.4931 1.1054,-5.7152 C 65.4244,29.8629 68.1381,43.5041 61.851,36.0233 55.3221,28.2624 50.2095,29.7324 47.9756,28.4965 45.7417,27.2606 39.992,23.0884 37.1709,23.0884 c -2.8211,0 -4.5407,8.0258 -10.9314,6.6402 0.2073,0.2149 0.4452,0.4184 0.7446,0.5911 4.5868,2.3797 7.8493,-5.9992 10.3211,-5.9992 2.4719,0 8.4673,4.7633 10.8508,6.5289 2.3797,1.7656 6.6134,3.5273 11.4649,6.7016 2.9248,1.9153 4.794,6.5941 4.794,6.5941 z"
         fill="url(#paint7_linear)"
         id="path11"
         style="fill:url(#paint7_linear)" /><path
         d="m 34.6991,61.9857 c -2.4642,-0.1459 -3.1819,-2.8902 -2.3797,-5.1586 1.1015,-3.1321 3.2778,-3.5504 4.4523,-3.5274 1.1746,0.023 3.3048,0.9212 2.7329,3.8805 -0.4337,2.2761 -1.1016,5.0243 -4.8055,4.8055 z"
         fill="url(#paint8_linear)"
         id="path12"
         style="fill:url(#paint8_linear)" /><path
         d="m 42.2297,63.1564 c -1.5391,0 -3.2241,-0.4913 -3.0783,-4.913 0.1459,-4.4217 2.6446,-4.3718 3.3201,-4.3718 0.6756,0 3.0783,0.7868 3.0783,4.5215 0,3.7308 -1.4931,4.7633 -3.3201,4.7633 z"
         fill="url(#paint9_linear)"
         id="path13"
         style="fill:url(#paint9_linear)" /><path
         d="m 38.66,59.9435 c -1.1093,0.1382 -2.8633,0.2072 -3.8575,-0.5182 -1.2397,-0.9058 -0.9211,-3.988 0.1497,-5.7612 -0.9672,0.426 -1.9844,1.3165 -2.633,3.1589 -0.7984,2.2722 -0.0845,5.0127 2.3797,5.1586 2.2032,0.1343 3.3163,-0.7945 3.9611,-2.0381 z"
         fill="url(#paint10_linear)"
         id="path14"
         style="fill:url(#paint10_linear)" /><path
         d="m 45.5498,58.3889 c 0,-0.7562 -0.1152,-1.3626 -0.2802,-1.8923 -0.2726,1.447 -1.639,4.0455 -3.0591,4.0455 -1.2513,0 -2.2454,-0.3377 -3.0438,-2.5755 -0.0038,0.0922 -0.0153,0.1766 -0.0192,0.2726 -0.1458,4.4216 1.5392,4.9129 3.0783,4.9129 1.8309,0.0039 3.324,-1.0286 3.324,-4.7632 z"
         fill="url(#paint11_linear)"
         id="path15"
         style="fill:url(#paint11_linear)" /><path
         d="m 22.0634,54.071 c -2.4719,-1.1515 -2.9862,-3.75 -1.4202,-7.1277 1.566,-3.3777 3.9496,-2.4949 5.1241,-1.946 1.1745,0.5489 3.2472,3.0361 1.9422,5.8495 -1.305,2.8135 -3.6464,4.1569 -5.6461,3.2242 z"
         fill="url(#paint12_linear)"
         id="path16"
         style="fill:url(#paint12_linear)" /><path
         d="m 27.2527,58.3546 c -2.1648,-1.4163 -1.923,-4.4217 0.403,-7.7264 2.326,-3.3048 4.3756,-1.9998 5.3621,-1.236 0.9864,0.7639 2.4526,3.823 0.4068,6.4637 -1.5698,2.0304 -2.9747,4.5867 -6.1719,2.4987 z"
         fill="url(#paint13_linear)"
         id="path17"
         style="fill:url(#paint13_linear)" /><path
         d="m 22.8196,52.7509 c -1.9306,-0.902 -1.7464,-5.8496 0.4299,-8.2216 -0.9058,0.165 -1.8501,0.7907 -2.6024,2.4181 -1.566,3.3777 -1.0516,5.9762 1.4202,7.1277 1.9997,0.9327 4.3411,-0.4107 5.6461,-3.2242 -0.0038,-0.0076 -2.5985,2.967 -4.8938,1.9 z"
         fill="url(#paint14_linear)"
         id="path18"
         style="fill:url(#paint14_linear)" /><path
         d="m 27.2566,58.3508 c 1.685,1.1016 2.8711,0.9058 3.846,0.1842 -1.5468,-0.0499 -3.7078,-0.8674 -3.7078,-3.0783 0,-2.6368 1.6773,-5.5155 4.7288,-6.6478 -1.1054,-0.5489 -2.706,-0.6871 -4.4639,1.8155 -2.326,3.3086 -2.5717,6.3139 -0.4031,7.7264 z"
         fill="url(#paint15_linear)"
         id="path19"
         style="fill:url(#paint15_linear)" /><path
         d="m 20.6433,46.9432 c 0.4261,-0.9289 1.0363,-1.8654 2.0189,-2.3107 0.9903,-0.4414 2.138,-0.2034 3.0668,0.238 0.9749,0.4721 1.6697,1.3472 2.1149,2.303 0.4414,0.9672 0.5258,2.0995 0.2188,3.1243 -0.0192,0.0691 -0.0921,0.1075 -0.1612,0.0883 -0.0154,-0.0038 -0.0307,-0.0154 -0.0422,-0.023 l -0.0039,-0.0039 c -0.0576,-0.0422 -0.0691,-0.1266 -0.023,-0.1842 0.7024,-0.8828 1.6466,-1.804 2.9056,-1.8424 0.6102,-0.0307 1.2052,0.1727 1.7157,0.4644 0.4989,0.2841 1.0018,0.6679 1.3203,1.1822 0.6487,0.9941 0.9404,2.2032 0.8253,3.3777 -0.0154,0.1459 -0.0307,0.2956 -0.0653,0.4376 l -0.0422,0.2188 v 0.0076 c 0.2149,0.1497 -0.2917,-0.1957 -0.238,-0.1612 l 0.0115,-0.0077 0.0231,-0.0153 0.046,-0.0307 0.096,-0.0576 c 0.2571,-0.1497 0.5258,-0.2725 0.806,-0.3685 0.5642,-0.188 1.1553,-0.2648 1.7503,-0.2149 1.1821,0.1036 2.326,0.9365 2.6138,2.1226 0.0461,0.142 0.0653,0.2878 0.0883,0.4337 l 0.0077,0.0537 0.0038,0.0269 v 0.0077 c 0.0499,0.0115 -0.4222,-0.0576 -0.2226,-0.0346 l 0.0038,-0.0115 0.0461,-0.0998 0.0921,-0.1996 c 0.1344,-0.261 0.2879,-0.5181 0.4875,-0.7369 0.38,-0.4568 0.9327,-0.7638 1.5084,-0.8828 1.163,-0.3263 2.422,0.3224 3.063,1.2666 0.6908,0.9519 0.8866,2.1418 0.8751,3.274 -0.0269,-1.1322 -0.2687,-2.3106 -0.9711,-3.2049 -0.6871,-0.8867 -1.8193,-1.4547 -2.9286,-1.1438 -0.5374,0.119 -1.0363,0.4068 -1.3856,0.8329 -0.1804,0.2073 -0.3224,0.4491 -0.4453,0.6947 l -0.0844,0.1919 -0.0422,0.096 -0.0039,0.0115 c 0.1996,0.0269 -0.2725,-0.0307 -0.2264,-0.0269 V 55.8288 L 39.4623,55.8019 39.4547,55.752 c -0.0231,-0.1343 -0.0423,-0.2725 -0.0845,-0.403 -0.2725,-1.0824 -1.3203,-1.8194 -2.4104,-1.9076 -0.545,-0.0384 -1.1093,0.0383 -1.6274,0.2187 -0.261,0.0922 -0.5105,0.2073 -0.7447,0.3493 l -0.0882,0.0576 -0.0423,0.0269 -0.023,0.0153 -0.0115,0.0077 c 0.0499,0.0384 -0.4529,-0.3147 -0.238,-0.1689 v -0.0077 l 0.0384,-0.2034 c 0.0307,-0.1343 0.0422,-0.2725 0.0537,-0.4107 0.0998,-1.1016 -0.2111,-2.23 -0.7945,-3.1589 -0.284,-0.4721 -0.7101,-0.8022 -1.1937,-1.0939 -0.4721,-0.2802 -1.0018,-0.4606 -1.543,-0.4414 -1.1092,0.0115 -2.0151,0.8444 -2.7098,1.7004 l -0.023,-0.1843 0.0038,0.0039 -0.2072,0.0652 c 0.2993,-0.9634 0.2379,-2.0266 -0.1728,-2.9555 -0.4107,-0.9173 -1.0824,-1.7771 -1.9843,-2.2223 -0.9136,-0.4337 -1.9844,-0.7024 -2.9478,-0.3148 -0.9596,0.3992 -1.6044,1.3012 -2.0612,2.2186 z"
         fill="#804b24"
         id="path20" /><path
         d="m 33.0217,49.3924 c -0.7254,-0.4913 -1.5698,-0.8713 -2.4104,-0.7638 -0.8367,0.1036 -1.5583,0.6333 -2.1341,1.2627 -0.5911,0.6257 -1.067,1.3703 -1.5199,2.1149 -0.4376,0.7523 -0.8291,1.543 -1.0747,2.3951 0.119,-0.879 0.4299,-1.7311 0.8367,-2.5256 0.4145,-0.7907 0.8982,-1.543 1.5008,-2.2223 0.6218,-0.6372 1.4201,-1.2321 2.3682,-1.2897 0.9519,-0.0691 1.7925,0.4414 2.4334,1.0287 z"
         fill="#804b24"
         id="path21" /><path
         d="m 33.9582,50.6777 c 0.7293,1.2129 0.8636,2.8173 0.2764,4.1607 -0.2956,0.6756 -0.7754,1.2283 -1.2053,1.7695 -0.4414,0.5488 -0.9058,1.0939 -1.4585,1.5353 0.4606,-0.5336 0.8406,-1.1208 1.2436,-1.6965 0.3992,-0.5873 0.8521,-1.1131 1.1016,-1.7465 0.568,-1.2436 0.4951,-2.6944 0.0422,-4.0225 z"
         fill="#804b24"
         id="path22" /><path
         d="m 38.545,53.9175 c 0.5259,0.3186 0.9366,0.8598 1.0978,1.4816 0.1765,0.6179 0.1305,1.2704 0.0268,1.8807 -0.2494,1.1783 -0.5527,2.468 -1.4355,3.3662 0.3263,-0.522 0.5336,-1.0901 0.6986,-1.6658 0.1612,-0.5796 0.2879,-1.1669 0.3915,-1.7656 0.2648,-1.1477 0.1382,-2.4335 -0.7792,-3.2971 z"
         fill="#804b24"
         id="path23" /><path
         d="m 36.5453,17.0816 c -0.38,-0.0307 -0.7523,-0.0806 -1.14,-0.0806 -5.8227,0 -8.0719,6.1758 -9.1274,7.9375 -0.9097,1.5123 -1.2743,3.4698 -0.0269,4.7787 0.1267,0.1343 0.0039,-0.5029 -0.2418,-1.1438 -0.5373,-1.3972 1.2244,-9.1697 10.5361,-11.4918 z"
         fill="url(#paint16_linear)"
         id="path24"
         style="fill:url(#paint16_linear)" /><path
         d="m 35.4051,17.001 c -1.3779,0.0077 -2.7482,0.4069 -3.8958,1.1515 -1.1592,0.7369 -2.1034,1.7579 -2.8902,2.8749 -0.7869,1.1246 -1.4087,2.3451 -2.0381,3.5734 -0.7063,1.1553 -1.259,2.5064 -0.9366,3.8267 0.1574,0.641 0.5604,1.2129 1.1054,1.5891 0.5489,0.3761 1.2129,0.5489 1.8654,0.5949 1.3434,-0.0307 2.5218,-0.8713 3.5005,-1.7886 0.9942,-0.9366 1.8424,-2.019 2.7789,-3.0399 0.4683,-0.5067 0.9558,-1.021 1.5968,-1.3818 0.6755,-0.4107 1.4892,-0.1958 2.1225,0.0269 2.6101,1.0516 4.8094,2.7558 7.0394,4.3641 1.1131,0.8098 2.1802,1.6965 3.3124,2.4526 1.1439,0.7485 2.3606,1.3972 3.5658,2.0573 2.4219,1.3089 4.8362,2.6484 7.1315,4.1722 1.1515,0.7946 2.0535,1.8769 2.8211,3.0169 0.76,1.1515 1.4087,2.3759 1.9307,3.6464 -1.1361,-2.4719 -2.5793,-4.9667 -4.8478,-6.5212 -2.3068,-1.5008 -4.721,-2.8173 -7.1507,-4.1108 -1.2128,-0.6525 -2.4334,-1.2935 -3.5964,-2.0458 -1.163,-0.7677 -2.2224,-1.6351 -3.3431,-2.4373 -2.2262,-1.5852 -4.4601,-3.2741 -6.9819,-4.2682 -0.6294,-0.2226 -1.3011,-0.3992 -1.8462,-0.0614 -0.5642,0.3109 -1.0516,0.806 -1.5161,1.3012 -0.9327,0.9979 -1.7925,2.0842 -2.8134,3.0322 -1.0018,0.925 -2.2377,1.8117 -3.7001,1.8385 -0.7139,-0.0537 -1.4202,-0.2456 -2.0074,-0.6525 -0.5835,-0.4068 -1.0249,-1.0363 -1.1899,-1.7349 -0.3378,-1.424 0.2764,-2.8326 0.9826,-3.9803 0.6333,-1.2167 1.2705,-2.4526 2.0765,-3.5772 0.8176,-1.1131 1.8001,-2.1303 2.9862,-2.848 1.1745,-0.7216 2.5601,-1.0939 3.938,-1.0709 z"
         fill="#804b24"
         id="path25" /><path
         opacity="0.75"
         d="m 35.1175,18.855 c 1.424,0.9519 0.3607,3.9227 -1.4279,6.7784 -1.4624,2.3337 -4.4255,4.0686 -5.7919,3.1052 -1.3665,-0.9673 -2.3913,-2.0919 0.9902,-6.7247 1.9921,-2.729 4.8363,-4.0877 6.2296,-3.1589 z"
         fill="url(#paint17_radial)"
         id="path26"
         style="fill:url(#paint17_radial)" /><path
         opacity="0.75"
         d="m 16.3711,20.1175 c 2.468,1.0017 2.4373,4.5099 1.3396,7.9337 -0.8982,2.8019 -4.1991,5.0127 -6.5942,3.9879 -2.39504,-1.021 -4.3871,-2.253 -1.92677,-7.8416 1.44317,-3.2894 4.76717,-5.0588 7.18137,-4.08 z"
         fill="url(#paint18_radial)"
         id="path27"
         style="fill:url(#paint18_radial)" /><path
         opacity="0.75"
         d="m 54.9343,27.3259 c -0.9097,1.447 -4.5023,1.2167 -8.0604,0.3339 -2.9094,-0.7216 -5.3275,-2.871 -4.3948,-4.272 0.9327,-1.401 2.1034,-2.5448 7.9375,-0.6986 3.4429,1.0863 5.4081,3.2242 4.5177,4.6367 z"
         fill="url(#paint19_radial)"
         id="path28"
         style="fill:url(#paint19_radial)" /><path
         opacity="0.75"
         d="m 67.2436,33.1332 c -2.303,1.0748 -5.1049,-0.7638 -7.1891,-3.2471 -1.7004,-2.0343 -1.4739,-5.3122 0.8022,-6.3293 2.2761,-1.0172 4.4793,-1.6659 7.4731,2.8172 1.7695,2.6446 1.1668,5.7076 -1.0862,6.7592 z"
         fill="url(#paint20_radial)"
         id="path29"
         style="fill:url(#paint20_radial)" /></g></g></svg>
